<svg xmlns="http://www.w3.org/2000/svg" xml:space="preserve" id="Layer_1" x="0px" y="0px" version="1.0" viewBox="0 0 1702 564"><style>.st0{fill:#07c55b;stroke:#07c55b;stroke-miterlimit:10}</style><path d="M564 280.8c0 155.72-126.28 282-282 282S0 436.53 0 280.8s126.28-282 282-282 282 126.28 282 282zM329.18 148.26v141.85L230.7 148.26h-81.24v265.08h85.36V271.5l98.47 141.85h81.24V148.26zM1563.62 159.4c33.45 0 60.98 11.12 77.43 28.43v-24H1702v221.11c0 96.8-58.11 144.46-138.47 144.46-40.67 0-75.03-11.12-96.33-23.13l20.82-51.03c15.47 8.7 43.59 18.51 76.01 18.51 40.66 0 73.08-29.27 73.58-66.86v-10.03c-11.18 12.99-34.87 28.93-71.66 28.93-79.88 0-134.06-53.93-134.06-132.45s54.21-133.94 131.73-133.94zm-821 29.6c14.02-14.91 42.14-29.85 77.48-29.85 77.9 0 128.29 53.46 128.29 132.95 0 79.43-52.82 133.39-132.61 133.39-33.45 0-61.49-13.99-76.48-28.9v24.56h-61.6V69.12h64.94v119.85zm515.44-29.85c81.83 0 135.51 56.83 135.51 132.95 0 76.09-55.63 133.39-135.51 133.39s-135.12-56.38-135.12-132.47 57.13-133.87 135.12-133.87zm-197.53 175.29c0 27.37 9.31 32.89 24.25 32.89 3.07-.01 6.14-.17 9.2-.47l1.53-.14v56.94l-1.17.2c-6.6 1-13.26 1.5-19.93 1.51-33.78 0-78.77-8.42-78.77-81.66V69.01h64.89zm507.88-117.99c-42.53 0-71.63 32.78-71.63 76.09 0 43.34 29.52 75.64 71.63 75.64 43.56 0 71.1-32.78 71.13-75.62 0-42.84-28.6-76.09-71.13-76.09zm-756.61 0c-43.01 0-71.1 31.8-71.1 75.62s28.57 75.62 71.6 75.62c44.07 0 71.13-31.8 71.13-75.62s-28.6-75.62-71.66-75.62zm446.26.95c-41.64 0-70.24 31.83-70.24 75.17 0 43.31 28.99 74.61 70.71 74.61 42.59 0 70.24-31.77 70.24-74.61s-29.07-75.14-70.71-75.17zm382.98-53.57h-.06l.06-.08z" class="st0"/></svg>